<?xml version="1.0" encoding="UTF-8"?>
<svg version="1.1" xmlns="http://www.w3.org/2000/svg" width="256" height="256">
<path d="M0 0 C1.03382813 0.36867188 2.06765625 0.73734375 3.1328125 1.1171875 C15.60795103 5.94090773 26.92281825 13.2630495 37 22 C37.80695313 22.67417969 38.61390625 23.34835938 39.4453125 24.04296875 C60.07840481 41.79777703 74.36401592 66.41043154 80 93 C80.17515137 93.7736792 80.35030273 94.5473584 80.53076172 95.34448242 C82.19715656 103.35759694 82.3998524 111.27498781 82.375 119.4375 C82.37412384 120.14176117 82.37324768 120.84602234 82.37234497 121.57162476 C82.24533515 152.61519733 71.83026591 180.17853952 52 204 C51.25878906 204.89460937 50.51757812 205.78921875 49.75390625 206.7109375 C44.40756258 212.90545334 38.4959807 218.04180526 32 223 C31.25621094 223.58265625 30.51242188 224.1653125 29.74609375 224.765625 C16.83373174 234.37691359 -5.13983955 248.14176337 -22 246 C-24.15822536 244.38945743 -24.91313772 243.49982575 -25.37854004 240.8217926 C-25.38059448 239.97640427 -25.38264893 239.13101593 -25.38476562 238.26000977 C-25.39487671 237.29793106 -25.40498779 236.33585236 -25.41540527 235.34461975 C-25.41238403 234.3040593 -25.40936279 233.26349884 -25.40625 232.19140625 C-25.41708618 231.11430893 -25.42792236 230.03721161 -25.43908691 228.92747498 C-25.47341539 225.47242313 -25.48893874 222.0177 -25.5 218.5625 C-25.51467171 214.04265711 -25.54864069 209.52353675 -25.59375 205.00390625 C-25.59072876 203.98156387 -25.58770752 202.9592215 -25.58459473 201.90589905 C-25.64947415 195.55052631 -26.5389826 189.91014125 -28.26037598 183.78892517 C-30.36031211 175.8706254 -30.36031211 175.8706254 -29.08984375 172.80078125 C-25.95634036 170.10069702 -22.49113318 169.31577447 -18.5625 168.1875 C-5.98080278 164.26073624 3.64111179 158.342116 13 149 C13.86238281 148.15501953 13.86238281 148.15501953 14.7421875 147.29296875 C24.08020752 137.35015469 27.54985197 124.93964389 27.30859375 111.65625 C26.3846821 100.70965126 21.94257849 89.55203603 13.80078125 81.9453125 C12 80 12 80 11.57421875 77.96484375 C11.75227187 74.77830688 11.98635101 72.04094698 13 69 C13.12139491 66.54387046 13.17542192 64.08409804 13.1875 61.625 C13.20167969 60.31789063 13.21585938 59.01078125 13.23046875 57.6640625 C13.0164804 54.26201037 12.48144811 52.03316253 11 49 C6.61220187 49.53954841 4.0669572 51.1055018 0.5625 53.75 C-0.40042969 54.46542969 -1.36335937 55.18085937 -2.35546875 55.91796875 C-4.43985828 57.55900216 -6.33837002 59.23331229 -8.25 61.0625 C-11 63 -11 63 -14.125 63 C-15.42472505 62.6996191 -16.71556898 62.36020944 -18 62 C-19.99967908 61.49871805 -21.99970692 60.99882621 -24 60.5 C-24.969375 60.2421875 -25.93875 59.984375 -26.9375 59.71875 C-41.92250864 56.20186022 -59.60728575 56.69158776 -74.078125 62.1640625 C-77.5819133 63.16648322 -79.51963251 63.0612572 -83 62 C-85.52734375 60.07421875 -85.52734375 60.07421875 -87.9375 57.6875 C-94.47501033 51.26445628 -94.47501033 51.26445628 -103 49 C-105.09804879 53.29560978 -105.23899993 56.87764267 -105.1875 61.625 C-105.18105469 62.93726562 -105.17460938 64.24953125 -105.16796875 65.6015625 C-105.15331437 68.98840763 -105.15331437 68.98840763 -104 72 C-103.08729701 78.73118457 -103.08729701 78.73118457 -105.3515625 81.87890625 C-106.57676105 83.17157168 -107.81040853 84.45626275 -109.05078125 85.734375 C-117.10205111 95.09256442 -119.51731562 106.37093118 -119.3125 118.33984375 C-118.46030869 128.32113448 -114.66102908 136.84453331 -109 145 C-107.948125 146.5159375 -107.948125 146.5159375 -106.875 148.0625 C-97.25950918 158.86848015 -83.13540896 165.36553772 -69.79296875 170.17578125 C-68 171 -68 171 -67 173 C-66.31484873 180.40188017 -66.31721348 186.0515955 -71 192 C-75.26815148 195.76601601 -80.50737918 195.97461038 -86 196 C-95.74579003 194.74247871 -104.07073534 188.50643379 -112 183 C-101.82072633 196.90987577 -101.82072633 196.90987577 -86.89672852 204.28125 C-83.74955759 204.45382701 -80.60821697 204.49170837 -77.45703125 204.52734375 C-76.29880859 204.56021484 -76.29880859 204.56021484 -75.1171875 204.59375 C-74.42222168 204.60083984 -73.72725586 204.60792969 -73.01123047 204.61523438 C-70.16691764 205.1593758 -68.95626769 205.83289162 -67 208 C-66.60647347 210.74989826 -66.46221825 213.09514498 -66.50390625 215.84375 C-66.50245102 216.60925171 -66.50099579 217.37475342 -66.49949646 218.16345215 C-66.50115527 219.78071908 -66.51271477 221.39800183 -66.53344727 223.01513672 C-66.5623976 225.49124164 -66.55405862 227.96520501 -66.54101562 230.44140625 C-66.54725334 232.01303124 -66.55564455 233.58464947 -66.56640625 235.15625 C-66.56347061 235.89693726 -66.56053497 236.63762451 -66.55751038 237.40075684 C-66.65136037 242.51209776 -66.65136037 242.51209776 -68.40942383 244.97241211 C-71.22878044 246.79385063 -73.60933362 246.13414106 -76.82421875 245.6875 C-96.06123533 241.52302901 -114.11996565 231.7116871 -129 219 C-129.96421875 218.18660156 -130.9284375 217.37320313 -131.921875 216.53515625 C-154.69579525 196.62370387 -170.32459689 167.07728526 -174 137 C-174.31986378 131.66383148 -174.39000241 126.34328317 -174.375 121 C-174.37445618 120.27111572 -174.37391235 119.54223145 -174.37335205 118.79125977 C-174.33337 107.12161733 -173.45679538 96.19418948 -170 85 C-169.79101074 84.29069336 -169.58202148 83.58138672 -169.36669922 82.85058594 C-164.35930287 66.17426821 -156.30466995 51.22544845 -145 38 C-144.34644531 37.22897949 -144.34644531 37.22897949 -143.6796875 36.44238281 C-108.08190208 -5.11438861 -50.81608241 -18.25007691 0 0 Z M-121 31 C-121.81726563 31.68578125 -122.63453125 32.3715625 -123.4765625 33.078125 C-147.3693063 53.64215837 -160.73253636 83.07382544 -163.17285156 114.20507812 C-164.78198234 143.6021396 -154.79112958 172.46313031 -136 195 C-135.20335937 195.97195312 -134.40671875 196.94390625 -133.5859375 197.9453125 C-118.87577831 214.96643326 -100.10860684 225.79049224 -79 233 C-78.67 233 -78.34 233 -78 233 C-78 227.72 -78 222.44 -78 217 C-80.2275 216.79375 -82.455 216.5875 -84.75 216.375 C-97.50581947 214.81646472 -106.9360891 208.98217365 -115 199 C-118.05055533 194.98247619 -121.02646968 190.91182512 -123.91552734 186.77661133 C-128.44506492 180.38146964 -133.23300736 174.35363413 -141 172 C-141.04241723 169.66705225 -141.04092937 167.33297433 -141 165 C-139.14156511 163.14156511 -136.24308444 163.73966807 -133.75 163.6875 C-119.78653138 163.85709678 -110.09300177 169.28428998 -99 177 C-97.27341492 178.17048384 -95.54464061 179.3377533 -93.8125 180.5 C-93.13832031 180.9640625 -92.46414062 181.428125 -91.76953125 181.90625 C-87.90044238 184.29773981 -84.42581767 184.08350599 -80 184 C-79.67 182.68 -79.34 181.36 -79 180 C-80.02738281 179.50371094 -81.05476563 179.00742188 -82.11328125 178.49609375 C-93.08591055 173.14119578 -103.49526343 167.9408769 -112 159 C-112.66 159 -113.32 159 -114 159 C-114.27328125 158.4121875 -114.5465625 157.824375 -114.828125 157.21875 C-115.9655716 155.06518444 -117.21442675 153.3823156 -118.75 151.5 C-127.98697007 139.25932083 -132.6533848 124.35017478 -131 109 C-128.95033701 96.9826307 -124.98598328 86.8130388 -117.71875 76.8828125 C-115.76897624 74.28046276 -115.76897624 74.28046276 -116.23046875 72.09375 C-116.48441406 71.4028125 -116.73835938 70.711875 -117 70 C-117.77064141 58.7814824 -117.40867381 47.81988324 -110.6875 38.25 C-108 36 -108 36 -104.83203125 35.6328125 C-100.21481691 36.07523671 -97.05501236 37.48336667 -93 39.625 C-91.93519409 40.16326416 -91.93519409 40.16326416 -90.84887695 40.71240234 C-87.12173836 42.65508441 -84.10957831 44.55361842 -81.1875 47.625 C-78.35657098 50.23020777 -78.35657098 50.23020777 -75.7109375 49.9921875 C-73.87084616 49.65022362 -72.04198375 49.2441681 -70.2265625 48.7890625 C-66.48923634 47.8750917 -62.74956972 47.34616984 -58.9375 46.875 C-57.03291016 46.62363281 -57.03291016 46.62363281 -55.08984375 46.3671875 C-46.65509882 45.49008198 -38.60364789 46.13790934 -30.25 47.4375 C-29.34378906 47.57220703 -28.43757812 47.70691406 -27.50390625 47.84570312 C-26.62089844 47.97783203 -25.73789063 48.10996094 -24.828125 48.24609375 C-23.56923462 48.432323 -23.56923462 48.432323 -22.28491211 48.62231445 C-20.3885763 48.93577011 -18.51161469 49.36386602 -16.64453125 49.8203125 C-13.92141909 50.26422383 -13.92141909 50.26422383 -11.68359375 48.55859375 C-10.94238281 47.85863281 -10.20117188 47.15867188 -9.4375 46.4375 C-3.08649398 40.9787048 4.24949178 36.35060923 12.7578125 35.72265625 C16 36 16 36 18.1875 37.9375 C22.80369339 45.73727503 25.14314361 52.28505315 25.125 61.375 C25.12757813 62.66148438 25.13015625 63.94796875 25.1328125 65.2734375 C25 69 25 69 24.296875 72.18359375 C23.73280602 75.02960392 23.73280602 75.02960392 25.2578125 77.38671875 C25.87398437 78.14597656 26.49015625 78.90523438 27.125 79.6875 C36.07089323 91.62723798 40.41846544 106.067776 39 121 C35.95074228 139.80375595 26.59764046 155.48786858 11.3046875 167.03515625 C2.87511399 172.6261999 -6.36956779 176.93380858 -16 180 C-15.84152588 180.93336182 -15.68305176 181.86672363 -15.51977539 182.82836914 C-14.81480593 187.78738164 -14.76976124 192.74456268 -14.68359375 197.74609375 C-14.66281265 198.75720718 -14.64203156 199.76832062 -14.62062073 200.81007385 C-14.55557951 204.01915113 -14.49645273 207.22830568 -14.4375 210.4375 C-14.39427152 212.62175257 -14.35065589 214.80599752 -14.30664062 216.99023438 C-14.1999451 222.3267428 -14.09809691 227.66332696 -14 233 C-7.17866177 230.82834917 -0.51263683 228.62721096 5.875 225.375 C6.54499023 225.03509033 7.21498047 224.69518066 7.90527344 224.3449707 C34.98366957 210.18339083 55.49567711 185.94098565 65.37109375 157.03173828 C74.8212421 126.50218295 72.48157875 94.5137236 57.6875 66.125 C53.76266473 58.88481189 49.26285431 52.34854803 44 46 C43.30390625 45.15179688 42.6078125 44.30359375 41.890625 43.4296875 C23.06611924 21.51356583 -4.16518379 6.98711627 -33 4 C-65.48913078 2.30764013 -96.10209702 9.07624925 -121 31 Z " fill="#9CB178" transform="translate(174,9)"/>
</svg>
