<?xml version="1.0" encoding="UTF-8"?>
<svg version="1.1" xmlns="http://www.w3.org/2000/svg" width="256" height="256">
<path d="M0 0 C0.83182114 -0.00453111 1.66364228 -0.00906223 2.52067012 -0.01373065 C5.3002699 -0.0263629 8.07967345 -0.02475503 10.85929871 -0.02310181 C12.85541027 -0.02908779 14.85151952 -0.0358935 16.84762573 -0.04345703 C22.26506972 -0.06111716 27.68245052 -0.06581242 33.09992051 -0.0670886 C36.48607111 -0.06851076 39.87220567 -0.07278159 43.25835228 -0.07808304 C55.07586562 -0.0965834 66.89333386 -0.10475365 78.71086121 -0.10317993 C89.71945077 -0.10197855 100.72784426 -0.12308028 111.73638421 -0.15466726 C121.19390179 -0.18083502 130.65135534 -0.19154701 140.10890883 -0.19026911 C145.75476232 -0.18975963 151.40044155 -0.19543563 157.04625893 -0.21662521 C162.35771629 -0.23601586 167.66883331 -0.23612624 172.98030281 -0.22159195 C174.92611438 -0.21950379 176.8719473 -0.22420514 178.81772232 -0.23631287 C197.63626356 -0.34579827 197.63626356 -0.34579827 204.59440613 4.26742554 C205.30754376 4.71281488 206.0206814 5.15820423 206.75542927 5.61709023 C214.14549624 10.41593158 219.2697245 17.82274218 221.59440613 26.26742554 C221.78151933 29.10325738 221.87322825 31.83919491 221.86183167 34.67301941 C221.86636278 35.50484055 221.87089389 36.33666169 221.87556231 37.19368953 C221.88819456 39.97328931 221.8865867 42.75269285 221.88493347 45.53231812 C221.89091946 47.52842968 221.89772516 49.52453893 221.9052887 51.52064514 C221.92294882 56.93808913 221.92764409 62.35546993 221.92892027 67.77293992 C221.93034242 71.15909052 221.93461325 74.54522508 221.9399147 77.93137169 C221.95841506 89.74888503 221.96658531 101.56635327 221.9650116 113.38388062 C221.96381022 124.39247018 221.98491194 135.40086367 222.01649892 146.40940362 C222.04266668 155.8669212 222.05337868 165.32437475 222.05210078 174.78192824 C222.05159129 180.42778173 222.05726729 186.07346096 222.07845688 191.71927834 C222.09784752 197.0307357 222.0979579 202.34185272 222.08342361 207.65332222 C222.08133546 209.59913379 222.08603681 211.54496671 222.09814453 213.49074173 C222.20762994 232.30928297 222.20762994 232.30928297 217.59440613 239.26742554 C217.14901678 239.98056317 216.70362743 240.69370081 216.24474144 241.42844868 C211.44590009 248.81851565 204.03908948 253.94274391 195.59440613 256.26742554 C192.75857428 256.45453874 190.02263676 256.54624766 187.18881226 256.53485107 C186.35699112 256.53938219 185.52516998 256.5439133 184.66814214 256.54858172 C181.88854236 256.56121397 179.10913881 256.55960611 176.32951355 256.55795288 C174.33340198 256.56393886 172.33729273 256.57074457 170.34118652 256.57830811 C164.92374253 256.59596823 159.50636174 256.6006635 154.08889174 256.60193968 C150.70274115 256.60336183 147.31660659 256.60763266 143.93045998 256.61293411 C132.11294663 256.63143447 120.29547839 256.63960472 108.47795105 256.63803101 C97.46936149 256.63682963 86.46096799 256.65793135 75.45242804 256.68951833 C65.99491047 256.71568609 56.53745692 256.72639809 47.07990342 256.72512019 C41.43404993 256.7246107 35.7883707 256.7302867 30.14255333 256.75147629 C24.83109596 256.77086693 19.51997895 256.77097731 14.20850945 256.75644302 C12.26269788 256.75435487 10.31686496 256.75905621 8.37108994 256.77116394 C-10.4474513 256.88064935 -10.4474513 256.88064935 -17.40559387 252.26742554 C-18.11873151 251.82203619 -18.83186914 251.37664684 -19.56661701 250.91776085 C-26.95668398 246.1189195 -32.08091224 238.71210889 -34.40559387 230.26742554 C-34.59270707 227.43159369 -34.68441599 224.69565616 -34.67301941 221.86183167 C-34.67755052 221.03001053 -34.68208163 220.19818939 -34.68675005 219.34116155 C-34.69938231 216.56156177 -34.69777444 213.78215822 -34.69612122 211.00253296 C-34.7021072 209.00642139 -34.70891291 207.01031214 -34.71647644 205.01420593 C-34.73413656 199.59676194 -34.73883183 194.17938115 -34.74010801 188.76191115 C-34.74153017 185.37576056 -34.74580099 181.989626 -34.75110245 178.60347939 C-34.76960281 166.78596604 -34.77777305 154.9684978 -34.77619934 143.15097046 C-34.77499796 132.1423809 -34.79609969 121.1339874 -34.82768667 110.12544745 C-34.85385443 100.66792988 -34.86456642 91.21047632 -34.86328852 81.75292283 C-34.86277904 76.10706934 -34.86845504 70.46139011 -34.88964462 64.81557274 C-34.90903527 59.50411537 -34.90914565 54.19299836 -34.89461136 48.88152885 C-34.8925232 46.93571728 -34.89722455 44.98988436 -34.90933228 43.04410934 C-35.01881768 24.22556811 -35.01881768 24.22556811 -30.40559387 17.26742554 C-29.96020452 16.5542879 -29.51481518 15.84115026 -29.05592918 15.1064024 C-22.32730432 4.74452862 -12.07621441 -0.04856601 0 0 Z M19.80924988 56.24008179 C15.77899275 61.33745192 14.1598854 65.35184399 14.24674988 71.97836304 C15.10469578 77.62731019 18.0257076 82.65744547 21.96940613 86.70492554 C28.13455604 90.37465763 33.43293213 92.49011622 40.59440613 91.26742554 C46.59627494 89.25487638 51.36195144 86.56568431 54.69596863 81.07992554 C57.66809697 75.08397966 58.28594984 69.6908693 56.59440613 63.26742554 C53.95201238 57.16031634 50.20447328 53.69579991 44.59440613 50.26742554 C35.05530973 47.08772674 26.50710558 48.83873139 19.80924988 56.24008179 Z M103.59440613 112.26742554 C103.26440613 112.92742554 102.93440613 113.58742554 102.59440613 114.26742554 C102.56862488 113.58035522 102.54284363 112.89328491 102.51628113 112.18539429 C102.45956238 111.2843396 102.40284363 110.38328491 102.34440613 109.45492554 C102.29799988 108.56160522 102.25159363 107.66828491 102.20378113 106.74789429 C101.80592836 104.18814181 101.80592836 104.18814181 99.92961121 102.63729858 C96.98384287 100.90925821 95.02566288 100.87996587 91.62174988 100.86898804 C90.47512878 100.86512085 89.32850769 100.86125366 88.1471405 100.85726929 C86.95411316 100.86887085 85.76108582 100.88047241 84.53190613 100.89242554 C83.3350116 100.88082397 82.13811707 100.86922241 80.904953 100.85726929 C79.75962097 100.86113647 78.61428894 100.86500366 77.43424988 100.86898804 C75.86211731 100.87406372 75.86211731 100.87406372 74.25822449 100.87924194 C71.15944215 101.33081044 70.48611678 101.84850934 68.59440613 104.26742554 C68.14066518 106.24200716 68.14066518 106.24200716 68.19999695 108.44235229 C68.18864716 109.29197037 68.17729736 110.14158844 68.16560364 111.01695251 C68.16853424 111.94587814 68.17146484 112.87480377 68.17448425 113.83187866 C68.16601471 114.81260849 68.15754517 115.79333832 68.14881897 116.80378723 C68.12538042 120.05221448 68.12442837 123.30017006 68.12565613 126.54867554 C68.1185593 128.80164786 68.11086101 131.05461837 68.10258484 133.30758667 C68.08912467 138.0320437 68.08757846 142.75633358 68.09342957 147.48080444 C68.09933053 153.54424554 68.0687241 159.60688728 68.02831268 165.67017365 C68.00250418 170.32323552 67.99955199 174.9761031 68.00320435 179.62922668 C68.00150703 181.86521923 67.9918062 184.10122018 67.97406006 186.33714294 C67.95200343 189.45963577 67.9615046 192.58048673 67.97917175 195.70297241 C67.96590851 196.63189804 67.95264526 197.56082367 67.9389801 198.51789856 C67.9700775 200.8750564 68.03478053 202.97771383 68.59440613 205.26742554 C71.93349468 208.18406244 74.61242269 208.64496184 78.97331238 208.63070679 C79.97684753 208.63006226 80.98038269 208.62941772 82.014328 208.62875366 C83.56990417 208.60458374 83.56990417 208.60458374 85.15690613 208.57992554 C86.71828308 208.58475952 86.71828308 208.58475952 88.311203 208.58969116 C94.75778581 208.68052288 94.75778581 208.68052288 100.59440613 206.26742554 C101.88960688 203.67702403 101.72608488 201.7915044 101.73625183 198.89071655 C101.74328629 197.76516861 101.75032074 196.63962067 101.75756836 195.47996521 C101.76173264 194.25611618 101.76589691 193.03226715 101.77018738 191.77133179 C101.79340166 189.18473525 101.81751962 186.5981467 101.842453 184.01156616 C101.87870099 179.9302684 101.90852462 175.84911657 101.92033386 171.76766968 C101.93246912 167.83111349 101.97618286 163.89516358 102.02018738 159.95883179 C102.01827896 158.75320084 102.01637054 157.54756989 102.0144043 156.30540466 C102.12664525 148.45158844 102.71915738 139.7299477 108.11218262 133.51963806 C113.20885137 129.15235747 117.02704512 128.90425105 123.54362488 129.00570679 C128.21134206 129.40613835 130.02592941 130.14500841 133.59440613 133.26742554 C138.12402014 140.93141311 138.1678383 148.8087289 138.13346863 157.48226929 C138.14339654 158.82844118 138.15534567 160.17459953 138.16920471 161.52073669 C138.20130488 165.0327136 138.21193736 168.54437889 138.21604919 172.05648804 C138.22486849 177.70083836 138.26030287 183.34493682 138.30822372 188.98907661 C138.32078715 190.95388732 138.31946898 192.91877093 138.31794739 194.88362122 C138.32490631 196.07238358 138.33186523 197.26114594 138.33903503 198.4859314 C138.34029388 199.53276596 138.34155273 200.57960052 138.34284973 201.65815735 C138.40972783 204.50205928 138.40972783 204.50205928 140.59440613 207.26742554 C143.66633105 207.71897254 143.66633105 207.71897254 147.28190613 207.63070679 C148.26936829 207.63145454 148.26936829 207.63145454 149.27677917 207.63221741 C150.66881834 207.62987658 152.0608617 207.62014734 153.45280457 207.60360718 C155.58632663 207.58001488 157.71859932 207.58304514 159.85221863 207.58969116 C166.81739933 208.11615752 166.81739933 208.11615752 172.59440613 205.26742554 C172.90869203 202.59653228 172.90869203 202.59653228 172.86906433 199.43515015 C172.87859634 198.20884384 172.88812836 196.98253754 172.89794922 195.71907043 C172.89768739 194.3693031 172.89674841 193.01953575 172.89518738 191.66976929 C172.89907861 190.27845635 172.90341416 188.88714459 172.90817261 187.49583435 C172.91565213 184.5660622 172.91533645 181.6364104 172.91007996 178.70663452 C172.90548816 175.73219524 172.91220548 172.75816844 172.93058777 169.78378296 C174.16709077 138.02289634 174.16709077 138.02289634 161.62565613 109.89633179 C153.4922029 101.86602017 144.11433179 99.90600999 133.03190613 99.76742554 C120.65274773 99.92246783 112.17577001 103.04744853 103.59440613 112.26742554 Z M19.59440613 104.26742554 C18.97939651 107.41550798 19.06947845 110.54191916 19.10856628 113.74008179 C19.10476959 114.71105804 19.1009729 115.6820343 19.09706116 116.68243408 C19.08963933 119.89859101 19.11106141 123.11384861 19.13346863 126.32992554 C19.13585217 128.56047459 19.13675856 130.79102566 19.13624573 133.02157593 C19.13937654 137.69903102 19.15596379 142.37618021 19.18278503 147.05355835 C19.21676511 153.05623109 19.22441377 159.05856742 19.22289467 165.06132507 C19.22343794 169.66805242 19.23439817 174.27470589 19.24889755 178.88140869 C19.25527239 181.09504639 19.25920605 183.30869248 19.26068497 185.52233887 C19.26501064 188.61329475 19.28249605 191.7038905 19.30387878 194.79476929 C19.30297241 195.71434418 19.30206604 196.63391907 19.3011322 197.58135986 C19.30966217 198.42256378 19.31819214 199.2637677 19.32698059 200.13046265 C19.33033228 200.8612352 19.33368397 201.59200775 19.33713722 202.34492493 C19.49479179 204.59406193 19.49479179 204.59406193 21.59440613 207.26742554 C26.31408444 208.84065164 31.08930084 208.45190254 36.03190613 208.45492554 C37.08184753 208.46717163 38.13178894 208.47941772 39.21354675 208.49203491 C40.22481628 208.49396851 41.23608582 208.4959021 42.27799988 208.49789429 C43.66329895 208.50405762 43.66329895 208.50405762 45.07658386 208.51034546 C47.74194842 208.25319063 49.35039035 207.70781326 51.59440613 206.26742554 C53.32198303 202.81227174 52.76019559 198.81995542 52.77140808 195.01596069 C52.77797928 194.05649033 52.78455048 193.09701996 52.7913208 192.10847473 C52.81107735 188.92447844 52.82272059 185.74052932 52.83268738 182.55648804 C52.83676291 181.47109112 52.84083843 180.3856942 52.84503746 179.26740646 C52.86590653 173.5245762 52.88020561 167.78176991 52.88957214 162.03890991 C52.90064877 156.09787749 52.93506094 150.15721837 52.97474384 144.21631813 C53.00084563 139.65589688 53.00925817 135.09556553 53.01285362 130.53507614 C53.01773489 128.34456226 53.02939237 126.1540528 53.04789162 123.9636116 C53.07214978 120.90133005 53.0713425 117.84002696 53.06437683 114.77767944 C53.08359192 113.41537956 53.08359192 113.41537956 53.10319519 112.02555847 C53.08736073 107.01958905 53.08736073 107.01958905 50.73287964 102.70439148 C47.96465063 100.84425584 46.19767439 100.76518188 42.87565613 100.77133179 C41.77866394 100.77068726 40.68167175 100.77004272 39.55143738 100.76937866 C38.41061707 100.78935913 37.26979675 100.8093396 36.09440613 100.82992554 C34.95358582 100.82283569 33.8127655 100.81574585 32.63737488 100.80844116 C25.36810374 100.52624067 25.36810374 100.52624067 19.59440613 104.26742554 Z " fill="#9BB078" transform="translate(34.40559387207031,-0.267425537109375)"/>
</svg>
